# xmcd CD database file
#
# Track frame offsets:
#	150
#	17333
#	50205
#	71720
#	99058
#	112343
#	128848
#	150963
#	168495
#	207375
#
# Disc length: 2960 seconds
#
# Revision: 0
# Processed by: cddbd v1.4PL0 Copyright (c) Steve Scherf et al.
# Submitted via: CDex 1.50
#
DISCID=830b8e0a
DTITLE=Thomas L'etienne New Orleans ensemble - featuring Lillian Boutté L'etienne
DYEAR=1989
DGENRE=Jazz
TTITLE0=Tennessee waltz
TTITLE1=Let them talk
TTITLE2=I still get jealous
TTITLE3=He's funny that way
TTITLE4=Bugle call rag
TTITLE5=Love
TTITLE6=I surrender dear
TTITLE7=Traveller's tune
TTITLE8=Nobody knows the trouble I've seen
TTITLE9=Who rolled the stone away
EXTD=YEAR: 1989
EXTT0=
EXTT1=
EXTT2=
EXTT3=
EXTT4=
EXTT5=
EXTT6=
EXTT7=
EXTT8=
EXTT9=
PLAYORDER=
